<svg width="185" height="47" viewBox="0 0 185 47" fill="none" xmlns="http://www.w3.org/2000/svg">
<path fill-rule="evenodd" clip-rule="evenodd" d="M149.9 21.94C150.062 21.94 150.217 21.8758 150.331 21.7614C150.446 21.647 150.51 21.4918 150.51 21.33C150.507 21.1691 150.442 21.0154 150.329 20.9015C150.215 20.7877 150.061 20.7226 149.9 20.72H145.15C144.989 20.7226 144.835 20.7877 144.722 20.9015C144.608 21.0154 144.543 21.1691 144.54 21.33C144.54 21.4918 144.604 21.647 144.719 21.7614C144.833 21.8758 144.988 21.94 145.15 21.94H149.9Z" fill="#6CFFA2"/>
<path fill-rule="evenodd" clip-rule="evenodd" d="M148.52 26.56C148.52 26.7218 148.584 26.877 148.699 26.9914C148.813 27.1058 148.968 27.17 149.13 27.17H153.88C153.966 27.1811 154.053 27.1737 154.136 27.1484C154.219 27.123 154.296 27.0803 154.361 27.0231C154.426 26.9658 154.478 26.8954 154.514 26.8164C154.549 26.7374 154.568 26.6517 154.568 26.565C154.568 26.4783 154.549 26.3926 154.514 26.3137C154.478 26.2347 154.426 26.1642 154.361 26.107C154.296 26.0497 154.219 26.007 154.136 25.9817C154.053 25.9563 153.966 25.9489 153.88 25.96H149.13C148.97 25.96 148.816 26.0229 148.702 26.1351C148.588 26.2474 148.523 26.4 148.52 26.56Z" fill="#6CFFA2"/>
<path fill-rule="evenodd" clip-rule="evenodd" d="M152.51 23.34H147.24C147.154 23.3289 147.067 23.3363 146.984 23.3617C146.901 23.387 146.824 23.4297 146.759 23.4869C146.694 23.5442 146.642 23.6147 146.606 23.6936C146.571 23.7726 146.552 23.8583 146.552 23.945C146.552 24.0317 146.571 24.1174 146.606 24.1964C146.642 24.2754 146.694 24.3458 146.759 24.4031C146.824 24.4603 146.901 24.503 146.984 24.5284C147.067 24.5537 147.154 24.5611 147.24 24.55H152.51C152.672 24.55 152.827 24.4857 152.942 24.3713C153.056 24.257 153.12 24.1018 153.12 23.94C153.12 23.7782 153.056 23.6231 152.942 23.5087C152.827 23.3943 152.672 23.33 152.51 23.33" fill="#6CFFA2"/>
<path fill-rule="evenodd" clip-rule="evenodd" d="M145.66 24.56C145.746 24.5711 145.833 24.5637 145.916 24.5384C145.999 24.5131 146.076 24.4703 146.141 24.4131C146.206 24.3558 146.258 24.2854 146.294 24.2064C146.329 24.1274 146.348 24.0417 146.348 23.955C146.348 23.8683 146.329 23.7827 146.294 23.7037C146.258 23.6247 146.206 23.5542 146.141 23.497C146.076 23.4397 145.999 23.397 145.916 23.3717C145.833 23.3463 145.746 23.339 145.66 23.35H145.44C145.354 23.339 145.267 23.3463 145.184 23.3717C145.101 23.397 145.024 23.4397 144.959 23.497C144.894 23.5542 144.842 23.6247 144.806 23.7037C144.77 23.7827 144.752 23.8683 144.752 23.955C144.752 24.0417 144.77 24.1274 144.806 24.2064C144.842 24.2854 144.894 24.3558 144.959 24.4131C145.024 24.4703 145.101 24.5131 145.184 24.5384C145.267 24.5637 145.354 24.5711 145.44 24.56H145.66Z" fill="#6CFFA2"/>
<path fill-rule="evenodd" clip-rule="evenodd" d="M156.55 29.18C156.55 29.0999 156.534 29.0206 156.504 28.9466C156.473 28.8726 156.428 28.8053 156.371 28.7487C156.315 28.692 156.248 28.6471 156.174 28.6164C156.099 28.5858 156.02 28.57 155.94 28.57H145.69C145.528 28.57 145.373 28.6343 145.259 28.7487C145.144 28.8631 145.08 29.0182 145.08 29.18C145.08 29.3418 145.144 29.4969 145.259 29.6113C145.373 29.7257 145.528 29.79 145.69 29.79H155.94C156.02 29.79 156.099 29.7742 156.174 29.7436C156.248 29.7129 156.315 29.668 156.371 29.6113C156.428 29.5547 156.473 29.4875 156.504 29.4134C156.534 29.3394 156.55 29.2601 156.55 29.18Z" fill="#6CFFA2"/>
<path fill-rule="evenodd" clip-rule="evenodd" d="M175.41 28.5C173.54 27.75 172.62 27.31 171.85 28.03C172.24 27.25 172.08 27.2 171.76 26.62C170.261 24.6639 169.235 22.3881 168.76 19.97C169.272 18.6107 169.631 17.1987 169.83 15.76C169.83 15.76 170.19 14.76 168.59 15.23C167.603 15.8412 166.558 16.3537 165.47 16.76C163.47 16.53 160.56 15.09 159.47 12.86C159.47 12.86 160.37 10.99 159.58 10.56C159.04 10.25 157.43 11.94 157.43 11.94L152.14 18.1L151.74 18.86C151.663 19.0181 151.629 19.1938 151.641 19.3694C151.653 19.545 151.712 19.7142 151.81 19.86C153.21 21.73 158.73 29.09 161.88 32.98C152.88 33.05 148.02 34.43 151.47 34.91C154.3 35.3 160.74 35.19 165.57 35.17C166.134 35.3373 166.709 35.4643 167.29 35.55L175.4 35.63C176.46 35.57 177.4 35.49 178.17 35.41C178.415 35.3827 178.648 35.2878 178.842 35.136C179.036 34.9841 179.185 34.7812 179.27 34.55C180.14 32.24 178.76 29.83 175.39 28.48M159.2 24L158.93 17.7L160.77 21.55L162.77 20.76L163.28 26.82L161.19 23.04L159.2 24Z" fill="#6CFFA2"/>
<path d="M7.31006 35.39L8.69006 29.48H22.8001L23.5901 28.83L23.9101 27.41L23.4901 26.86H13.7401L9.94006 21.9L11.2201 16.32L16.0401 12.42H33.4601L32.0801 18.33H18.6301L17.8101 18.98L17.5201 20.39L17.9401 20.95H27.6901L31.5001 25.91L30.1801 31.48L25.3901 35.39H7.31006Z" fill="#6CFFA2"/>
<path d="M38.3201 35.39L42.2601 18.33H33.8901L35.2701 12.42H59.2201L57.8401 18.33H49.4801L45.5401 35.39H38.3201Z" fill="#6CFFA2"/>
<path d="M55.8701 35.39L61.1901 12.42H82.1901L80.8101 18.33H67.0301L66.3801 21.12H76.5501L75.3301 26.37H65.1601L64.4701 29.48H78.5801L77.2001 35.39H55.8701Z" fill="#6CFFA2"/>
<path d="M80 35.39L85.32 12.39H103L106.67 17.18L104.74 25.55L99.74 29.62H88.53L87.21 35.36L80 35.39ZM89.91 23.74H97L98.21 22.74L99.03 19.19L98.34 18.31H91.19L89.91 23.74Z" fill="#6CFFA2"/>
<path d="M112.36 35.39L117.68 12.42H127.88L131.4 27.52H132.38L135.89 12.42H142.62L137.3 35.39H127.1L123.59 20.3H122.57L119.09 35.39H112.36Z" fill="#6CFFA2"/>
<path fill-rule="evenodd" clip-rule="evenodd" d="M107.94 4.45001L107.73 16.98L111.37 15.08L114.27 21.49L114.05 9.49001L110.51 11.31L107.94 4.45001Z" fill="#6CFFA2"/>
</svg>
