<svg width="447" height="256" viewBox="0 0 447 256" fill="none" xmlns="http://www.w3.org/2000/svg">
<path d="M74.43 148.64V84.79L85.93 73.29H142.12L153.61 84.79V148.64L142.12 160.14H85.93L74.43 148.64ZM171.49 206.11L209.8 167.8V65.63L171.49 27.32H56.55L18.24 65.63V167.8L56.55 206.11H171.49Z" stroke="#00F1FF" stroke-width="8.96" stroke-linecap="round" stroke-linejoin="round"/>
<path d="M390.54 206.11L428.85 167.8V95H322.85V134.59H373.94V148.64L362.44 160.14H304.98L293.48 148.64V84.79L304.98 73.29H410.98V27.32H275.6L237.29 65.63V167.8L275.6 206.11H390.54Z" stroke="#00F1FF" stroke-width="8.96" stroke-linecap="round" stroke-linejoin="round"/>
<g filter="url(#filter0_d_213_1870)">
<path d="M307.475 164.6H115.205C95.331 164.6 79.22 180.711 79.22 200.585C79.22 220.459 95.331 236.57 115.205 236.57H307.475C327.349 236.57 343.46 220.459 343.46 200.585C343.46 180.711 327.349 164.6 307.475 164.6Z" fill="#56FF97"/>
</g>
<path d="M147.02 215.19V206.262H128.668L126.436 204.03V191.63L128.668 189.398H147.02V180.47H122.964L115.524 187.91V207.75L122.964 215.19H147.02Z" fill="black"/>
<path d="M181.544 215.19V205.766H163.688V180.47H152.776V215.19H181.544Z" fill="black"/>
<path d="M198.356 180.47L184.914 212.214V215.19H195.28L197.463 209.486H213.583L215.716 215.19H226.33V212.214L213.136 180.47H198.356ZM205.002 189.894H206.242L210.26 200.558H200.885L205.002 189.894Z" fill="black"/>
<path d="M255.252 215.19V206.758H248.308V188.902H255.252V180.47H230.452V188.902H237.396V206.758H230.452V215.19H255.252Z" fill="black"/>
<path d="M271.422 215.19V193.366H272.414L278.862 211.47H288.286L294.734 193.366H295.726V215.19H306.142V180.47H290.617L284.268 198.574H283.078L276.729 180.47H261.006V215.19H271.422Z" fill="black"/>
<path d="M307.475 164.6H115.205C95.331 164.6 79.22 180.711 79.22 200.585C79.22 220.459 95.331 236.57 115.205 236.57H307.475C327.349 236.57 343.46 220.459 343.46 200.585C343.46 180.711 327.349 164.6 307.475 164.6Z" fill="url(#paint0_linear_213_1870)"/>
<path d="M312.48 132C307.95 125.6 304.3 127.13 284.48 128.67C262.48 130.39 221.12 128.56 195.91 116.5C170.7 104.44 144.83 79.24 141.1 51.17C138.25 28.05 141.21 25.85 141.65 23C142.09 20.15 138.43 20.52 138.43 20.52L128.77 21.03C126.41 21.03 126.77 21.91 127.12 25.58C128.387 35.9144 126.35 46.3847 121.3 55.49C113.55 69.81 110.19 86.91 116.11 107.08C122.03 127.25 140.77 157.76 187.68 171.35C234.59 184.94 271.54 174.35 295.44 159.69C319.11 142.81 315.16 135.8 312.44 132M185.24 140.22L175.54 153.79L150.76 112.79L177.15 131.79L187.41 119.26L213 157.84L185.24 140.22Z" fill="white"/>
<defs>
<filter id="filter0_d_213_1870" x="71.22" y="162.6" width="280.24" height="87.97" filterUnits="userSpaceOnUse" color-interpolation-filters="sRGB">
<feFlood flood-opacity="0" result="BackgroundImageFix"/>
<feColorMatrix in="SourceAlpha" type="matrix" values="0 0 0 0 0 0 0 0 0 0 0 0 0 0 0 0 0 0 127 0" result="hardAlpha"/>
<feOffset dy="6"/>
<feGaussianBlur stdDeviation="4"/>
<feComposite in2="hardAlpha" operator="out"/>
<feColorMatrix type="matrix" values="0 0 0 0 0 0 0 0 0 0 0 0 0 0 0 0 0 0 0.5 0"/>
<feBlend mode="normal" in2="BackgroundImageFix" result="effect1_dropShadow_213_1870"/>
<feBlend mode="normal" in="SourceGraphic" in2="effect1_dropShadow_213_1870" result="shape"/>
</filter>
<linearGradient id="paint0_linear_213_1870" x1="211.34" y1="164.6" x2="211.34" y2="236.57" gradientUnits="userSpaceOnUse">
<stop stop-color="white" stop-opacity="0"/>
<stop offset="0.248574" stop-color="white" stop-opacity="0.6"/>
<stop offset="1" stop-color="white" stop-opacity="0"/>
</linearGradient>
</defs>
</svg>
